<svg id="Layer_1" data-name="Layer 1" xmlns="http://www.w3.org/2000/svg" viewBox="0 0 351.35 239.07"><defs><style>.cls-1,.cls-3{fill:none;stroke-miterlimit:10;}.cls-1{stroke:#5f80b2;stroke-width:2px;stroke-dasharray:12;}.cls-2{fill:#36404a;}.cls-3{stroke:#36404a;stroke-width:3px;}</style></defs><title>output</title><line class="cls-1" x1="5" y1="109.17" x2="126.14" y2="31.99"/><line class="cls-1" x1="58.69" y1="187.84" x2="5" y2="109.17"/><line class="cls-1" x1="126.14" y1="31.99" x2="315.6" y2="5"/><line class="cls-1" x1="58.69" y1="187.84" x2="254.5" y2="235.1"/><line class="cls-1" x1="228.75" y1="128.33" x2="315.6" y2="5"/><line class="cls-1" x1="254.5" y1="235.1" x2="228.75" y2="128.33"/><line class="cls-1" x1="346.35" y1="142.16" x2="315.6" y2="5"/><line class="cls-1" x1="254.5" y1="235.1" x2="346.35" y2="142.16"/><circle class="cls-2" cx="5" cy="109.17" r="5"/><circle class="cls-2" cx="126.14" cy="32.37" r="5"/><circle class="cls-2" cx="58.69" cy="187.84" r="5"/><circle class="cls-2" cx="346.35" cy="142.16" r="5"/><circle class="cls-2" cx="228.75" cy="128.33" r="5"/><circle class="cls-2" cx="315.6" cy="5" r="5"/><circle class="cls-2" cx="254.77" cy="234.07" r="5"/><line class="cls-3" x1="58.69" y1="187.84" x2="126.78" y2="30.51"/><line class="cls-3" x1="126.14" y1="31.99" x2="228.75" y2="128.33"/><line class="cls-3" x1="58.69" y1="187.84" x2="228.75" y2="128.33"/><line class="cls-3" x1="315.6" y1="5" x2="254.5" y2="235.1"/></svg>