<svg id="Layer_1" data-name="Layer 1" xmlns="http://www.w3.org/2000/svg" viewBox="0 0 671.38 481.96"><defs><style>.cls-1,.cls-2,.cls-3,.cls-5{fill:none;stroke-miterlimit:10;}.cls-1,.cls-2,.cls-3{stroke:#5f80b2;}.cls-2{stroke-dasharray:12.58 12.58;}.cls-3{stroke-dasharray:12;}.cls-4{fill:#36404a;}.cls-5{stroke:#36404a;stroke-width:3px;}</style></defs><title>VisibilityGraph</title><line class="cls-1" x1="5" y1="138.83" x2="6.43" y2="144.66"/><line class="cls-2" x1="9.42" y1="156.88" x2="61.82" y2="370.79"/><line class="cls-1" x1="63.31" y1="376.9" x2="64.74" y2="382.73"/><line class="cls-3" x1="258.43" y1="5" x2="462.12" y2="39.3"/><line class="cls-3" x1="381.57" y1="476.96" x2="64.74" y2="382.73"/><line class="cls-3" x1="64.74" y1="382.73" x2="534.72" y2="264.26"/><line class="cls-3" x1="258.43" y1="5" x2="64.74" y2="382.73"/><line class="cls-3" x1="462.12" y1="39.3" x2="5" y2="138.83"/><line class="cls-3" x1="381.57" y1="476.96" x2="666.38" y2="264.26"/><line class="cls-3" x1="410.95" y1="159.62" x2="534.72" y2="264.26"/><line class="cls-3" x1="64.74" y1="382.73" x2="410.95" y2="159.62"/><line class="cls-3" x1="462.12" y1="39.3" x2="410.95" y2="159.62"/><line class="cls-3" x1="381.57" y1="476.96" x2="410.95" y2="159.62"/><line class="cls-3" x1="462.12" y1="39.3" x2="666.38" y2="264.26"/><line class="cls-3" x1="534.72" y1="264.26" x2="666.38" y2="264.26"/><circle class="cls-4" cx="258.43" cy="5" r="5"/><circle class="cls-4" cx="5" cy="139.83" r="5"/><circle class="cls-4" cx="462.12" cy="39.3" r="5"/><circle class="cls-4" cx="64.74" cy="382.73" r="5"/><circle class="cls-4" cx="534.72" cy="264.26" r="5"/><circle class="cls-4" cx="381.57" cy="476.96" r="5"/><circle class="cls-4" cx="410.95" cy="159.62" r="5"/><circle class="cls-4" cx="666.38" cy="264.26" r="5"/><line class="cls-5" x1="410.21" y1="159.4" x2="666.38" y2="264.26"/><line class="cls-5" x1="531.96" y1="268.08" x2="381.95" y2="476.44"/><line class="cls-5" x1="62.83" y1="384.37" x2="464.27" y2="37.44"/><line class="cls-5" x1="2.77" y1="141.73" x2="258.43" y2="5"/></svg>